:FULLY-SPECIFIED
:FORCE-ALL-JOINTS-BE-3DOF
:DEGREES
306
root 9.12643 15.4643 -23.7274 20.5115 60.9967 24.291
lfemur -15.3988 16.6227 -18.522
ltibia 50.9524 0 0
lfoot -18.0597 -24.8876 0
ltoes 57.1095 0 0
rfemur -51.3864 -13.1296 27.4923
rtibia 56.4216 0 0
rfoot 2.69316 -3.46444 0
rtoes 13.5218 0 0
lowerback 8.52938 -3.07833 -6.89875
upperback 4.60449 -4.45349 -4.07163
thorax 0.260949 -2.23442 -0.0659602
lowerneck -3.84841 -11.5873 -2.58526
upperneck -1.65764 -15.3841 9.56216
head 1.20533 -7.67055 3.05208
lclavicle -5.88154e-14 -2.57002e-15 0
lhumerus -44.7759 -45.9684 103.929
lradius 59.7261 0 0
lwrist 19.0613 0 0
lhand 17.6013 12.6399 0
lfingers 7.12502 0 0
lthumb 42.2863 37.0677 0
rclavicle -5.88154e-14 -2.57002e-15 0
rhumerus -36.9612 29.0394 -78.891
rradius 73.5915 0 0
rwrist -2.45094 0 0
rhand -13.7151 -14.2424 0
rfingers 7.12502 0 0
rthumb 12.3845 -763.493 0
307
root 9.06775 15.491 -23.6838 19.0558 59.0392 22.3096
lfemur -15.5155 17.3226 -18.2767
ltibia 50.3825 0 0
lfoot -18.6 -23.7845 0
ltoes 57.0702 0 0
rfemur -52.9109 -14.226 27.7352
rtibia 57.1189 0 0
rfoot 3.10625 -1.4804 0
rtoes 9.03289 0 0
lowerback 8.73768 -2.83971 -6.79636
upperback 4.6281 -4.151 -4.08234
thorax 0.145717 -2.07987 -0.14054
lowerneck -3.99918 -11.5082 -2.0666
upperneck -2.30913 -15.247 9.68935
head 0.975937 -7.61487 3.0287
lclavicle -5.41864e-14 -2.5419e-15 0
lhumerus -45.316 -46.8134 104.34
lradius 59.6054 0 0
lwrist 18.9849 0 0
lhand 17.1957 12.2268 0
lfingers 7.12502 0 0
lthumb 41.9066 36.7856 0
rclavicle -5.41864e-14 -2.5419e-15 0
rhumerus -32.1197 28.5012 -75.2866
rradius 73.237 0 0
rwrist -5.03793 0 0
rhand -11.9999 -14.6834 0
rfingers 7.12502 0 0
rthumb 14.0375 -763.838 0
308
root 9.01068 15.5171 -23.6413 17.6401 57.1355 20.3826
lfemur -15.6289 18.0032 -18.0381
ltibia 49.8282 0 0
lfoot -19.1255 -22.7116 0
ltoes 57.032 0 0
rfemur -54.3935 -15.2922 27.9714
rtibia 57.7971 0 0
rfoot 3.50799 0.449124 0
rtoes 4.66732 0 0
lowerback 8.94026 -2.60766 -6.69678
upperback 4.65106 -3.85683 -4.09275
thorax 0.0336518 -1.92958 -0.213069
lowerneck -4.14581 -11.4314 -1.56219
upperneck -2.94271 -15.1138 9.81303
head 0.752846 -7.56072 3.00596
lclavicle -4.96845e-14 -2.51455e-15 0
lhumerus -45.8413 -47.6353 104.741
lradius 59.488 0 0
lwrist 18.9106 0 0
lhand 16.8011 11.8251 0
lfingers 7.12502 0 0
lthumb 41.5373 36.5113 0
rclavicle -4.96845e-14 -2.51455e-15 0
rhumerus -27.4112 27.9778 -71.7813
rradius 72.8923 0 0
rwrist -7.55382 0 0
rhand -10.3319 -15.1124 0
rfingers 7.12502 0 0
rthumb 15.6452 -764.173 0
309
root 8.9563 15.5419 -23.6009 16.2911 55.3215 18.5464
lfemur -15.7369 18.6518 -17.8107
ltibia 49.3001 0 0
lfoot -19.6262 -21.6893 0
ltoes 56.9955 0 0
rfemur -55.8063 -16.3083 28.1965
rtibia 58.4434 0 0
rfoot 3.89081 2.28777 0
rtoes 0.507348 0 0
lowerback 9.1333 -2.38653 -6.60189
upperback 4.67293 -3.57651 -4.10267
thorax -0.0731356 -1.78636 -0.282183
lowerneck -4.28553 -11.3581 -1.08153
upperneck -3.54645 -14.9868 9.93089
head 0.540261 -7.50912 2.9843
lclavicle -4.53947e-14 -2.48849e-15 0
lhumerus -46.3418 -48.4184 105.122
lradius 59.3762 0 0
lwrist 18.8398 0 0
lhand 16.4252 11.4423 0
lfingers 7.12502 0 0
lthumb 41.1854 36.25 0
rclavicle -4.53947e-14 -2.48849e-15 0
rhumerus -22.9245 27.479 -68.441
rradius 72.5639 0 0
rwrist -9.95122 0 0
rhand -8.74246 -15.5211 0
rfingers 7.12502 0 0
rthumb 17.1771 -764.492 0
310
root 8.90569 15.565 -23.5633 15.0354 53.6329 16.8372
lfemur -15.8375 19.2555 -17.5991
ltibia 48.8085 0 0
lfoot -20.0923 -20.7378 0
ltoes 56.9616 0 0
rfemur -57.1213 -17.254 28.406
rtibia 59.0449 0 0
rfoot 4.24714 3.9992 0
rtoes -3.36478 0 0
lowerback 9.31298 -2.1807 -6.51357
upperback 4.6933 -3.31558 -4.1119
thorax -0.172534 -1.65305 -0.346515
lowerneck -4.41559 -11.2899 -0.634139
upperneck -4.10843 -14.8686 10.0406
head 0.342386 -7.46109 2.96413
lclavicle -4.14017e-14 -2.46424e-15 0
lhumerus -46.8077 -49.1474 105.477
lradius 59.2721 0 0
lwrist 18.774 0 0
lhand 16.0753 11.0859 0
lfingers 7.12502 0 0
lthumb 40.8579 36.0067 0
rclavicle -4.14017e-14 -2.46424e-15 0
rhumerus -18.7482 27.0147 -65.3319
rradius 72.2581 0 0
rwrist -12.1827 0 0
rhand -7.26298 -15.9015 0
rfingers 7.12502 0 0
rthumb 18.603 -764.79 0
311
root 8.85991 15.5858 -23.5292 13.8997 52.1058 15.2914
lfemur -15.9285 19.8015 -17.4077
ltibia 48.3639 0 0
lfoot -20.5138 -19.8772 0
ltoes 56.9309 0 0
rfemur -58.3107 -18.1094 28.5955
rtibia 59.5889 0 0
rfoot 4.56941 5.54706 0
rtoes -6.86684 0 0
lowerback 9.47549 -1.99454 -6.43369
upperback 4.71172 -3.07959 -4.12025
thorax -0.262432 -1.53248 -0.404698
lowerneck -4.53321 -11.2283 -0.229503
upperneck -4.61669 -14.7617 10.1398
head 0.163423 -7.41765 2.94589
lclavicle -3.77903e-14 -2.4423e-15 0
lhumerus -47.2291 -49.8067 105.798
lradius 59.1779 0 0
lwrist 18.7144 0 0
lhand 15.7588 10.7637 0
lfingers 7.12502 0 0
lthumb 40.5616 35.7866 0
rclavicle -3.77903e-14 -2.4423e-15 0
rhumerus -14.9711 26.5948 -62.5199
rradius 71.9816 0 0
rwrist -14.201 0 0
rhand -5.9249 -16.2456 0
rfingers 7.12502 0 0
rthumb 19.8926 -765.059 0
312
root 8.82005 15.604 -23.4996 12.9107 50.7759 13.9453
lfemur -16.0077 20.277 -17.2411
ltibia 47.9767 0 0
lfoot -20.8809 -19.1277 0
ltoes 56.9042 0 0
rfemur -59.3464 -18.8543 28.7606
rtibia 60.0627 0 0
rfoot 4.85006 6.895 0
rtoes -9.91657 0 0
lowerback 9.617 -1.83243 -6.36412
upperback 4.72775 -2.87409 -4.12753
thorax -0.34072 -1.42749 -0.455367
lowerneck -4.63565 -11.1746 0.12287
upperneck -5.0593 -14.6686 10.2262
head 0.0075748 -7.37982 2.93001
lclavicle -3.46454e-14 -2.4232e-15 0
lhumerus -47.596 -50.3808 106.078
lradius 59.0959 0 0
lwrist 18.6625 0 0
lhand 15.4832 10.483 0
lfingers 7.12502 0 0
lthumb 40.3037 35.595 0
rclavicle -3.46454e-14 -2.4232e-15 0
rhumerus -11.6818 26.2292 -60.0711
rradius 71.7408 0 0
rwrist -15.9586 0 0
rhand -4.75964 -16.5453 0
rfingers 7.12502 0 0
rthumb 21.0157 -765.293 0
313
root 8.78717 15.619 -23.4752 12.095 49.6791 12.8351
lfemur -16.0731 20.6692 -17.1036
ltibia 47.6574 0 0
lfoot -21.1836 -18.5096 0
ltoes 56.8822 0 0
rfemur -60.2006 -19.4686 28.8967
rtibia 60.4534 0 0
rfoot 5.08152 8.00667 0
rtoes -12.4317 0 0
lowerback 9.73372 -1.69873 -6.30675
upperback 4.74098 -2.7046 -4.13353
thorax -0.405285 -1.3409 -0.497154
lowerneck -4.72012 -11.1303 0.41348
upperneck -5.42433 -14.5918 10.2975
head -0.120956 -7.34862 2.91691
lclavicle -3.20517e-14 -2.40744e-15 0
lhumerus -47.8987 -50.8543 106.309
lradius 59.0283 0 0
lwrist 18.6197 0 0
lhand 15.2559 10.2516 0
lfingers 7.12502 0 0
lthumb 40.0909 35.437 0
rclavicle -3.20517e-14 -2.40744e-15 0
rhumerus -8.96907 25.9276 -58.0515
rradius 71.5422 0 0
rwrist -17.4081 0 0
rhand -3.79864 -16.7924 0
rfingers 7.12502 0 0
rthumb 21.9419 -765.486 0
314
root 8.76235 15.6304 -23.4567 11.4794 48.8513 11.9971
lfemur -16.1224 20.9651 -16.9999
ltibia 47.4163 0 0
lfoot -21.4121 -18.0431 0
ltoes 56.8656 0 0
rfemur -60.8453 -19.9323 28.9994
rtibia 60.7483 0 0
rfoot 5.25621 8.84573 0
rtoes -14.3301 0 0
lowerback 9.82181 -1.59782 -6.26345
upperback 4.75096 -2.57668 -4.13805
thorax -0.454016 -1.27554 -0.528694
lowerneck -4.78389 -11.0969 0.632822
upperneck -5.69985 -14.5339 10.3513
head -0.217968 -7.32507 2.90702
lclavicle -3.00941e-14 -2.39555e-15 0
lhumerus -48.1271 -51.2117 106.483
lradius 58.9773 0 0
lwrist 18.5874 0 0
lhand 15.0844 10.0769 0
lfingers 7.12502 0 0
lthumb 39.9303 35.3177 0
rclavicle -3.00941e-14 -2.39555e-15 0
rhumerus -6.92158 25.7 -56.5272
rradius 71.3923 0 0
rwrist -18.5021 0 0
rhand -3.0733 -16.9789 0
rfingers 7.12502 0 0
rthumb 22.641 -765.632 0
315
root 8.74667 15.6375 -23.4451 11.0905 48.3283 11.4677
lfemur -16.1535 21.1521 -16.9343
ltibia 47.2641 0 0
lfoot -21.5565 -17.7483 0
ltoes 56.8551 0 0
rfemur -61.2526 -20.2252 29.0643
rtibia 60.9347 0 0
rfoot 5.36658 9.37582 0
rtoes -15.5294 0 0
lowerback 9.87746 -1.53407 -6.2361
upperback 4.75727 -2.49586 -4.14091
thorax -0.484803 -1.23425 -0.548619
lowerneck -4.82417 -11.0758 0.771396
upperneck -5.87391 -14.4973 10.3853
head -0.279256 -7.3102 2.90078
lclavicle -2.88573e-14 -2.38804e-15 0
lhumerus -48.2714 -51.4375 106.593
lradius 58.945 0 0
lwrist 18.567 0 0
lhand 14.976 9.96655 0
lfingers 7.12502 0 0
lthumb 39.8289 35.2424 0
rclavicle -2.88573e-14 -2.38804e-15 0
rhumerus -5.62804 25.5562 -55.5642
rradius 71.2976 0 0
rwrist -19.1933 0 0
rhand -2.61505 -17.0967 0
rfingers 7.12502 0 0
rthumb 23.0827 -765.724 0
